<svg id="b21eae07-00ab-43c5-b2aa-5f8469e6f8eb" data-name="Layer 1" xmlns="http://www.w3.org/2000/svg" viewBox="0 0 720.2 636"><defs><style>.edd874bb-98d7-4387-9a5f-212fd148d36a{fill:#006a38;}</style></defs><path class="edd874bb-98d7-4387-9a5f-212fd148d36a" d="M959.9,401.5a13.54,13.54,0,0,0-.8-4v-.2h0l-36-84a11.94,11.94,0,0,0-22,0l-36,84h0v.2a11.4,11.4,0,0,0-.8,4c0,.2-.1.3-.1.5V786a12,12,0,0,0,12,12h72a12,12,0,0,0,12-12V402C960,401.8,959.9,401.7,959.9,401.5ZM888,414h48V714H888Zm24-65.5L929.8,390H894.2ZM936,774H888V738h48Z" transform="translate(-240 -282)"/><path class="edd874bb-98d7-4387-9a5f-212fd148d36a" d="M792,282H348a12,12,0,0,0-12,12V798H252a12,12,0,0,0-12,12A108.12,108.12,0,0,0,348,918H696A108.12,108.12,0,0,0,804,810V294A12,12,0,0,0,792,282ZM348,894a84,84,0,0,1-83-72H588.7a107.72,107.72,0,0,0,39.6,72Zm348,0a84.12,84.12,0,0,1-84-84,12,12,0,0,0-12-12H360V306H780V810A84.12,84.12,0,0,1,696,894Z" transform="translate(-240 -282)"/><path class="edd874bb-98d7-4387-9a5f-212fd148d36a" d="M720,508.25H420a12,12,0,0,0-12,12v60a12,12,0,0,0,12,12H720a12,12,0,0,0,12-12v-60A12,12,0,0,0,720,508.25Zm-12,60H432v-36H708Z" transform="translate(-240 -282)"/><path class="edd874bb-98d7-4387-9a5f-212fd148d36a" d="M420,654H720a12,12,0,0,0,0-24H420a12,12,0,0,0,0,24Z" transform="translate(-240 -282)"/><path class="edd874bb-98d7-4387-9a5f-212fd148d36a" d="M720,686.89H420a12,12,0,1,0,0,24H720a12,12,0,0,0,0-24Z" transform="translate(-240 -282)"/><path class="edd874bb-98d7-4387-9a5f-212fd148d36a" d="M420,417.28H720a12,12,0,0,0,0-24H420a12,12,0,0,0,0,24Z" transform="translate(-240 -282)"/><path class="edd874bb-98d7-4387-9a5f-212fd148d36a" d="M720,450.21H420a12,12,0,0,0,0,24H720a12,12,0,0,0,0-24Z" transform="translate(-240 -282)"/></svg>