<svg id="a04ff189-7e50-4955-b49c-4871383b9947" data-name="afad344f-ee18-4c22-93ac-81c3177de48a" xmlns="http://www.w3.org/2000/svg" viewBox="0 0 78.66 73.48"><defs><style>.b66df731-3502-4fc4-8f19-25183c9430e3{fill:#006a38;}.b26d1a70-297c-4cba-a327-d58f7c8ac330{fill:none;stroke:#000;stroke-miterlimit:10;stroke-width:2.5px;}</style></defs><path class="b66df731-3502-4fc4-8f19-25183c9430e3" d="M44.31,64V62.12A16.31,16.31,0,0,0,54.42,48a1.39,1.39,0,0,0,.29-.35c.13-.25,3-5.71,2.12-11.35C70,35.29,70,33.51,70,32.56c0-1.16,0-2.89-15.38-3.87V23c0-2.79-1-6.11-5.89-6.11a28.93,28.93,0,0,0-5.63.79,27.15,27.15,0,0,1-4.92.71,28.16,28.16,0,0,1-5-.72,29.39,29.39,0,0,0-5.6-.78c-4.86,0-5.88,3.32-5.88,6.11v5.67c-15.37,1-15.37,2.71-15.37,3.87,0,1.32.76,2.49,10.08,3.43,1.05.11,2.19.2,3.36.29-.92,5.65,1.8,11.09,1.92,11.34a1.29,1.29,0,0,0,.22.3A16.3,16.3,0,0,0,32,62.12V64a20.61,20.61,0,0,0-7.91,2.13,1,1,0,0,0-.33.16A25.76,25.76,0,0,0,10.27,89.12a1.25,1.25,0,0,0,2.5,0,24,24,0,0,1,5.05-14.73V89.12a1.25,1.25,0,0,0,2.5,0V71.68a20.07,20.07,0,0,1,2.9-2.22V89.12a1.25,1.25,0,0,0,2.5,0v-21A18.38,18.38,0,0,1,32,66.5v.82a6.15,6.15,0,0,0,12.3,0h0v-.89a20.86,20.86,0,0,1,6.3,1.29v21.4a1.25,1.25,0,0,0,2.5,0V68.89a20.09,20.09,0,0,1,2.94,1.88.81.81,0,0,0,0,.22V89.12a1.25,1.25,0,0,0,2.5,0V73a23.2,23.2,0,0,1,6.06,16.12,1.25,1.25,0,0,0,2.5,0C67.11,75.2,57.39,64.6,44.31,64Zm8.63-18.45c-1-.74-2.61-3.15-4.31-8.8q3.15-.11,5.7-.27A17.15,17.15,0,0,1,52.94,45.52Zm-42.66-13A81.54,81.54,0,0,1,23,31.12a1.26,1.26,0,0,0,1.18-1.25V23c0-3,1.29-3.61,3.38-3.61a27.62,27.62,0,0,1,5.11.74,30.67,30.67,0,0,0,5.47.77,29.13,29.13,0,0,0,5.42-.77,28.28,28.28,0,0,1,5.09-.74c2.1,0,3.4.61,3.4,3.61v6.85a1.26,1.26,0,0,0,1.17,1.25A82.42,82.42,0,0,1,66,32.56c-2.78.65-8.91,1.41-19.07,1.72-2.84.08-5.8.13-8.78.13-14.09,0-24-.94-27.85-1.84Zm18.09,4.17c-1.78,5.15-3.6,8-4.86,8.81a17.27,17.27,0,0,1-1.23-9.09c1.93.16,4,.26,6.09.33ZM41.81,67.32a3.65,3.65,0,0,1-7.3,0h0V61.25a1.25,1.25,0,0,0-.83-1.18A13.8,13.8,0,0,1,24.42,47.9C26.74,46.74,29,43,31,36.82c2.33,0,4.73.09,7.18.09,2.68,0,5.32,0,7.89-.11,1.78,6.16,3.72,9.81,5.87,11a13.77,13.77,0,0,1-9.25,12.27,1.25,1.25,0,0,0-.85,1.19Z" transform="translate(-6.32 -16.91)"/><path class="b66df731-3502-4fc4-8f19-25183c9430e3" d="M84.89,70.32a2.79,2.79,0,0,0-1.7-1.54,4.54,4.54,0,0,0,1-3.89A2.37,2.37,0,0,0,83,63.62a4.15,4.15,0,0,0,1.18-3.76,2.14,2.14,0,0,0-1-1.12,3.48,3.48,0,0,0,.93-3.42A2.39,2.39,0,0,0,82.94,54a4.65,4.65,0,0,0,1.23-4.09,2.65,2.65,0,0,0-1.62-1.49,6.67,6.67,0,0,0-4-.31v-.49c0-3.52-2-7.39-3.88-7.39s-3.88,3.8-3.88,7.39v.49a6.68,6.68,0,0,0-4,.31,2.72,2.72,0,0,0-1.62,1.48A4.72,4.72,0,0,0,66.45,54a2.47,2.47,0,0,0-1.32,1.32,3.47,3.47,0,0,0,1,3.46,2.19,2.19,0,0,0-1,1.12,4.13,4.13,0,0,0,1.13,3.79,2.26,2.26,0,0,0-1.13,1.24,4.54,4.54,0,0,0,1,3.89,2.76,2.76,0,0,0-1.72,1.5C63.85,72,66,75.78,68.94,77.24a9.54,9.54,0,0,0,4.16,1h.3v10.9a1.25,1.25,0,1,0,2.5,0V78.25h.3a9.51,9.51,0,0,0,4.16-1C83.3,75.78,85.44,72,84.89,70.32Zm-15.62-2a3.1,3.1,0,0,1-1.78-2.46,4.13,4.13,0,0,1,3.63,0,6.18,6.18,0,0,1,2.43,2.56,1.25,1.25,0,0,0,2.2,0,6.31,6.31,0,0,1,2.42-2.57,4.13,4.13,0,0,1,3.63,0A3.12,3.12,0,0,1,80,68.32a6.94,6.94,0,0,0-2.67.72,8,8,0,0,0-2.64,2.17A7.91,7.91,0,0,0,72,69,6.71,6.71,0,0,0,69.27,68.32ZM67.49,56.21a4.13,4.13,0,0,1,3.63,0,5.06,5.06,0,0,1,2.43,2,1.26,1.26,0,0,0,1.7.5,1.21,1.21,0,0,0,.5-.5,5.14,5.14,0,0,1,2.42-2,4.15,4.15,0,0,1,3.64,0c0,.4-.43,1-1.6,1.69a6.61,6.61,0,0,0-3.15.68,8.84,8.84,0,0,0-2.38,1.74,8.81,8.81,0,0,0-2.41-1.69A6.65,6.65,0,0,0,69.11,58C67.85,57.23,67.5,56.58,67.49,56.21Zm3.63,4.61a5.12,5.12,0,0,1,2.43,2.12,1.26,1.26,0,0,0,1.7.5,1.21,1.21,0,0,0,.5-.5,5.19,5.19,0,0,1,2.42-2.12,4.16,4.16,0,0,1,3.61,0A3.29,3.29,0,0,1,79.89,63a6.48,6.48,0,0,0-2.83.68,7.38,7.38,0,0,0-2.41,2,7.54,7.54,0,0,0-2.42-2A6.34,6.34,0,0,0,69.37,63a3.3,3.3,0,0,1-1.86-2.15A4.16,4.16,0,0,1,71.12,60.82ZM74.68,43a8.18,8.18,0,0,1,1.4,4.57,12.38,12.38,0,0,1-.17,1.71,7.2,7.2,0,0,0-1.23,1,7.23,7.23,0,0,0-1.29-1,13.73,13.73,0,0,1-.13-1.69A8.24,8.24,0,0,1,74.68,43Zm-3.51,7.81a5.24,5.24,0,0,1,2.42,2.21,1.28,1.28,0,0,0,1.09.66,1.25,1.25,0,0,0,1.1-.66,5.45,5.45,0,0,1,2.42-2.21,4.18,4.18,0,0,1,3.62,0,3.49,3.49,0,0,1-1.95,2.47,6.43,6.43,0,0,0-2.81.68,9.15,9.15,0,0,0-2.38,1.63A9.14,9.14,0,0,0,72.27,54a6.42,6.42,0,0,0-2.75-.68,3.79,3.79,0,0,1-2-2.52,4.17,4.17,0,0,1,3.6.05ZM79.3,75a7.09,7.09,0,0,1-3,.76,3.82,3.82,0,0,1-1.16-.16,1.27,1.27,0,0,0-.39-.06,1.39,1.39,0,0,0-.4.06,3.72,3.72,0,0,1-1.15.16,7.12,7.12,0,0,1-3-.76A6.81,6.81,0,0,1,67,71.19a4.21,4.21,0,0,1,2-.44,4.5,4.5,0,0,1,2.07.48,6.77,6.77,0,0,1,2.68,2.83,1.26,1.26,0,0,0,1.7.5,1.21,1.21,0,0,0,.5-.5,6.84,6.84,0,0,1,2.68-2.83,4.5,4.5,0,0,1,2.07-.48,4.21,4.21,0,0,1,2,.44A6.8,6.8,0,0,1,79.25,75Z" transform="translate(-6.32 -16.91)"/><rect class="b66df731-3502-4fc4-8f19-25183c9430e3" x="5.19" y="70.96" width="54.3" height="2.5"/><path class="b26d1a70-297c-4cba-a327-d58f7c8ac330" d="M65.81,89.12" transform="translate(-6.32 -16.91)"/></svg>