<svg id="ec7ffa63-6488-4c53-a109-e9fb25afb0ab" data-name="Layer 1" xmlns="http://www.w3.org/2000/svg" viewBox="0 0 55.6 48.23"><defs><style>.f48fc1e3-6afd-4c34-8c5c-58c1e81b909c{fill:#006a38;}</style></defs><path class="f48fc1e3-6afd-4c34-8c5c-58c1e81b909c" d="M57.78,52.83H47a1,1,0,0,1-1-1V16.94a1,1,0,0,1,1-1H57.78a1,1,0,0,1,1,1V51.83A1,1,0,0,1,57.78,52.83Zm-9.77-2h8.77V17.94H48Z" transform="translate(-3.19 -4.61)"/><path class="f48fc1e3-6afd-4c34-8c5c-58c1e81b909c" d="M43.66,52.83H32.88a1,1,0,0,1-1-1V29.19a1,1,0,0,1,1-1H43.66a1,1,0,0,1,1,1V51.83A1,1,0,0,1,43.66,52.83Zm-9.78-2h8.78V30.19H33.88Z" transform="translate(-3.19 -4.61)"/><path class="f48fc1e3-6afd-4c34-8c5c-58c1e81b909c" d="M29.26,52.83H18.48a1,1,0,0,1-1-1V24.12a1,1,0,0,1,1-1H29.26a1,1,0,0,1,1,1V51.83A1,1,0,0,1,29.26,52.83Zm-9.78-2h8.78V25.12H19.48Z" transform="translate(-3.19 -4.61)"/><path class="f48fc1e3-6afd-4c34-8c5c-58c1e81b909c" d="M15,52.83H4.19a1,1,0,0,1-1-1V36.29a1,1,0,0,1,1-1H15a1,1,0,0,1,1,1V51.83A1,1,0,0,1,15,52.83Zm-9.77-2H14V37.29H5.19Z" transform="translate(-3.19 -4.61)"/><path class="f48fc1e3-6afd-4c34-8c5c-58c1e81b909c" d="M11,21.83A1,1,0,0,1,10.5,20L28.38,10a1,1,0,0,1,1.34.34L33.23,16,46.89,5.66a1,1,0,0,1,1.2,1.6L33.56,18.2a1,1,0,0,1-.79.19,1,1,0,0,1-.66-.46l-3.59-5.75-17,9.52A.94.94,0,0,1,11,21.83Z" transform="translate(-3.19 -4.61)"/><path class="f48fc1e3-6afd-4c34-8c5c-58c1e81b909c" d="M47.44,12.4h-.15a1,1,0,0,1-.84-1.15l.73-4.6-4,0a1,1,0,0,1,0-2h0l5.19,0a1,1,0,0,1,.76.35,1,1,0,0,1,.22.8l-.9,5.75A1,1,0,0,1,47.44,12.4Z" transform="translate(-3.19 -4.61)"/></svg>